<?xml version="1.0" encoding="utf-8"?>
<svg width="6" height="11.878" viewBox="0 0 6 11.878" fill="none" xmlns="http://www.w3.org/2000/svg">
  <path d="M0.191528 6.3261L1.49353 6.3261L1.49353 11.6862C1.49353 11.792 1.57935 11.8778 1.68518 11.8778L3.8927 11.8778C3.99854 11.8778 4.08435 11.792 4.08435 11.6862L4.08435 6.35135L5.58105 6.35135C5.67834 6.35135 5.76025 6.27832 5.77136 6.18166L5.99866 4.20833C6.00488 4.15404 5.98779 4.09967 5.95142 4.05894C5.91504 4.01817 5.86304 3.99484 5.80847 3.99484L4.08435 3.99484L4.08435 2.75787C4.08435 2.38498 4.28516 2.19589 4.68115 2.19589C4.73767 2.19589 5.80847 2.19589 5.80847 2.19589C5.91431 2.19589 6 2.11011 6 2.00432L6 0.192993C6 0.0871735 5.91431 0.00141907 5.80847 0.00141907L4.25488 0.00141907C4.24402 0.00088501 4.2196 0 4.18372 0C3.91418 0 2.97729 0.0529175 2.23718 0.73378C1.41711 1.48828 1.53113 2.39169 1.55835 2.54832L1.55835 3.9948L0.191528 3.9948C0.0856934 3.9948 0 4.08055 0 4.18639L0 6.13449C0 6.24031 0.0856934 6.3261 0.191528 6.3261Z" fill="#FFFFFF" />
</svg>