<?xml version="1.0" encoding="utf-8"?>
<svg width="14" height="14" viewBox="0 0 14 14" fill="none" xmlns="http://www.w3.org/2000/svg">
  <g>
    <path d="M0 0L14 0L14 14L0 14L0 0Z" />
    <path d="M5.83333 0C7.41825 0 7.616 0.00583339 8.23783 0.035C8.85908 0.0641667 9.282 0.161583 9.65417 0.30625C10.0392 0.454417 10.3635 0.655083 10.6878 0.978833C10.9845 1.27044 11.214 1.62318 11.3604 2.0125C11.5045 2.38408 11.6025 2.80758 11.6317 3.42883C11.6591 4.05067 11.6667 4.24842 11.6667 5.83333C11.6667 7.41825 11.6608 7.616 11.6317 8.23783C11.6025 8.85908 11.5045 9.282 11.3604 9.65417C11.2144 10.0437 10.9848 10.3965 10.6878 10.6878C10.3961 10.9844 10.0434 11.2139 9.65417 11.3604C9.28258 11.5045 8.85908 11.6025 8.23783 11.6317C7.616 11.6591 7.41825 11.6667 5.83333 11.6667C4.24842 11.6667 4.05067 11.6608 3.42883 11.6317C2.80758 11.6025 2.38467 11.5045 2.0125 11.3604C1.62302 11.2143 1.27022 10.9847 0.978833 10.6878C0.682154 10.3963 0.452627 10.0435 0.30625 9.65417C0.161583 9.28258 0.0641667 8.85908 0.035 8.23783C0.00758338 7.616 0 7.41825 0 5.83333C0 4.24842 0.00583339 4.05067 0.035 3.42883C0.0641667 2.807 0.161583 2.38467 0.30625 2.0125C0.452221 1.62294 0.681802 1.2701 0.978833 0.978833C1.27031 0.682052 1.62308 0.452509 2.0125 0.30625C2.38467 0.161583 2.807 0.0641667 3.42883 0.035C4.05067 0.00758338 4.24842 0 5.83333 0ZM5.83333 2.91667C4.2225 2.91667 2.91667 4.2225 2.91667 5.83333C2.91667 7.44416 4.2225 8.75 5.83333 8.75C7.44416 8.75 8.75 7.44416 8.75 5.83333C8.75 4.2225 7.44416 2.91667 5.83333 2.91667L5.83333 2.91667ZM9.625 2.77083C9.625 2.36813 9.29854 2.04167 8.89583 2.04167C8.49313 2.04167 8.16667 2.36813 8.16667 2.77083C8.16667 3.17354 8.49313 3.5 8.89583 3.5C9.29854 3.5 9.625 3.17354 9.625 2.77083ZM5.83333 4.08333C6.79983 4.08333 7.58333 4.86684 7.58333 5.83333C7.58333 6.79983 6.79983 7.58333 5.83333 7.58333C4.86684 7.58333 4.08333 6.79983 4.08333 5.83333C4.08333 4.86684 4.86684 4.08333 5.83333 4.08333Z" fill="#FFFFFF" transform="translate(1.167 1.167)" />
  </g>
</svg>