<?xml version="1.0" encoding="utf-8"?>
<svg width="12.996" height="7.736" viewBox="0 0 12.996 7.736" fill="none" xmlns="http://www.w3.org/2000/svg">
  <path d="M12.7019 0.531845C12.5557 0.991653 12.3585 1.39189 12.1116 1.75529L12.1218 1.73904C11.8793 2.14343 11.5895 2.61064 11.2526 3.14069C10.9637 3.55914 10.8109 3.77579 10.7939 3.79059C10.7191 3.88429 10.6671 3.9991 10.6493 4.12529L10.6488 4.12909C10.6633 4.2439 10.7164 4.3441 10.7939 4.41884L11.0105 4.66039C12.1696 5.85152 12.8214 6.67258 12.9662 7.12354C12.9851 7.17337 12.996 7.23077 12.996 7.29089C12.996 7.39595 12.9624 7.4929 12.9055 7.57251L12.9066 7.57089C12.8113 7.66891 12.6781 7.72958 12.5308 7.72958C12.5145 7.72958 12.4977 7.72903 12.4821 7.72742L12.4843 7.72742L11.0593 7.72742C11.0587 7.72742 11.0576 7.72742 11.0565 7.72742C10.874 7.72742 10.7062 7.6635 10.5746 7.55736L10.5762 7.55844C10.3844 7.40083 10.2139 7.23022 10.0612 7.04501L10.0563 7.03851C9.80676 6.75652 9.58545 6.51912 9.39221 6.32631C8.7489 5.71468 8.27405 5.40886 7.9679 5.40886C7.95654 5.40778 7.94348 5.40724 7.92993 5.40724C7.84058 5.40724 7.7572 5.43486 7.68835 5.48198L7.69006 5.4809C7.63367 5.5513 7.59961 5.64229 7.59961 5.74031C7.59961 5.75981 7.60071 5.77823 7.60339 5.79718L7.60339 5.79501C7.58875 5.96507 7.58008 6.16275 7.58008 6.36261C7.58008 6.42705 7.58118 6.49097 7.58276 6.55487L7.58276 6.54565L7.58276 7.17337C7.58826 7.19882 7.59143 7.22806 7.59143 7.25786C7.59143 7.38892 7.53186 7.50591 7.43872 7.58334L7.43823 7.58389C7.22864 7.67975 6.98376 7.73607 6.72546 7.73607C6.67017 7.73607 6.61609 7.73337 6.5625 7.72849L6.56946 7.72903C5.71704 7.71278 4.92627 7.46312 4.25415 7.0423L4.27319 7.05313C3.45483 6.55595 2.77673 5.90875 2.26001 5.14403L2.24548 5.12128C1.75476 4.47029 1.29712 3.7348 0.907104 2.95924L0.869263 2.87584C0.641235 2.44148 0.405151 1.90749 0.201416 1.35831L0.168945 1.25812C0.0860596 1.01115 0.026001 0.724106 0.00109863 0.426773L0 0.413239C0 0.139557 0.161011 0.00270081 0.483154 0.00270081L1.90747 0.00270081C1.92053 0.00161743 1.93567 0.00108337 1.95129 0.00108337C2.08569 0.00108337 2.20972 0.0471191 2.30774 0.124573L2.30664 0.123489C2.41492 0.242096 2.49512 0.387772 2.53467 0.550262L2.53625 0.556747C2.79834 1.2971 3.07617 1.91885 3.39575 2.5146L3.3595 2.4404C3.62048 2.96574 3.90918 3.41797 4.23853 3.83554L4.22607 3.81876C4.51489 4.17331 4.74023 4.3506 4.90198 4.3506C4.90686 4.35114 4.91272 4.35114 4.91931 4.35114C4.99939 4.35114 5.06934 4.30782 5.10718 4.24281L5.10779 4.24173C5.14783 4.13884 5.17114 4.01913 5.17114 3.89458C5.17114 3.86804 5.17004 3.84151 5.16785 3.81551L5.16785 3.81876L5.16785 1.71793C5.15649 1.47041 5.09583 1.23917 4.99451 1.03172L4.9989 1.04202C4.93176 0.899033 4.85107 0.775558 4.75513 0.665619L4.75684 0.667786C4.66797 0.578964 4.6073 0.462524 4.58838 0.332535L4.58777 0.329285C4.58777 0.237213 4.63 0.154358 4.69617 0.100189L4.69666 0.0996552C4.76221 0.0395355 4.84998 0.00325012 4.9458 0.00325012L4.9502 0.00325012L7.19556 0.00325012C7.20752 0.00161743 7.22107 0.00108337 7.23511 0.00108337C7.3407 0.00108337 7.43555 0.0487366 7.49829 0.123489L7.4989 0.124023C7.55469 0.225845 7.58765 0.347702 7.58765 0.476593C7.58765 0.497177 7.58655 0.517212 7.58496 0.537262L7.58496 0.534546L7.58496 3.3362C7.58386 3.3492 7.58337 3.36436 7.58337 3.37952C7.58337 3.47917 7.61096 3.57288 7.65857 3.65248L7.65759 3.65031C7.69702 3.70882 7.76318 3.74672 7.83789 3.74672L7.83838 3.74672C7.93372 3.74022 8.02039 3.70882 8.09351 3.65898L8.09192 3.66006C8.23926 3.55879 8.36597 3.44344 8.47583 3.31291L8.47803 3.3102C8.80676 2.93867 9.11011 2.52814 9.37439 2.09163L9.39551 2.05371C9.58179 1.74501 9.78333 1.36481 9.96582 0.974319L9.99939 0.894714L10.241 0.411606C10.3248 0.170059 10.5502 0 10.8151 0C10.8253 0 10.8356 0 10.8459 0.000534058L10.8442 0.000534058L12.2692 0.000534058C12.6541 0.000534058 12.7985 0.177643 12.7025 0.531845L12.7019 0.531845Z" fill="#FFFFFF" />
</svg>