<?xml version="1.0" encoding="utf-8"?>
<svg width="14" height="14" viewBox="0 0 14 14" fill="none" xmlns="http://www.w3.org/2000/svg">
  <g>
    <path d="M6.85835 0C6.82527 2.87985 6.63695 4.49155 5.56425 5.56425C4.49155 6.63695 2.87985 6.82527 0 6.85835L0 7.27627C2.87985 7.30933 4.49155 7.49765 5.56425 8.57035C6.62012 9.62622 6.81915 11.2043 6.85668 14L7.27795 14C7.31545 11.2043 7.51448 9.62622 8.57035 8.57035C9.62622 7.51448 11.2043 7.31545 14 7.27795L14 6.85665C11.2043 6.81915 9.62622 6.62012 8.57035 5.56425C7.49765 4.49155 7.30933 2.87985 7.27627 0L6.85835 0Z" fill="#FFFFFF" fill-rule="evenodd" />
  </g>
</svg>