<?xml version="1.0" encoding="utf-8"?>
<svg width="23" height="22.96" viewBox="0 0 23 22.96" fill="none" xmlns="http://www.w3.org/2000/svg">
  <path d="M21.2935 14.825L19.7867 15.4377C20.301 14.4352 20.7327 13.4583 21.0734 12.5201C21.3822 11.67 21.6097 10.8663 21.7561 10.1139C21.965 11.6595 21.8273 13.2688 21.2935 14.825L21.2935 14.825ZM16.1198 20.7339L13.5154 19.6352C13.6454 19.4532 13.776 19.2646 13.907 19.0703L20.6403 16.332C19.6138 18.2651 18.0217 19.7891 16.1198 20.7339L16.1198 20.7339ZM12.3539 21.7726C12.4722 21.5065 12.6046 21.1677 12.7645 20.7406C12.7832 20.6912 12.8016 20.6403 12.8203 20.5898L14.577 21.3309C13.8516 21.5604 13.1085 21.7087 12.3539 21.7726L12.3539 21.7726ZM12.0985 18.5646L12.0769 18.5732L11.5277 18.7967L11.5 18.8079L11.4723 18.7967L10.9231 18.5732L10.9015 18.5646L10.6697 18.4703C10.4773 17.8717 10.2759 17.208 10.075 16.4945C10.3452 16.4589 10.6293 16.4342 10.9272 16.4203C10.9343 16.42 10.9415 16.4193 10.949 16.4193C11.1276 16.411 11.3118 16.4069 11.5 16.4065C11.6882 16.4069 11.8721 16.411 12.051 16.4193C12.0585 16.4193 12.0653 16.42 12.0728 16.4203C12.3704 16.4342 12.6548 16.4589 12.925 16.4945C12.7241 17.208 12.5227 17.8717 12.3303 18.4703L12.0985 18.5646ZM8.42297 21.3309L10.1797 20.5898C10.1984 20.6403 10.2168 20.6912 10.2355 20.7406C10.3954 21.1677 10.5275 21.5065 10.6461 21.7726C9.89148 21.7087 9.14844 21.5604 8.42297 21.3309L8.42297 21.3309ZM2.35974 16.332L9.09302 19.0703C9.224 19.2646 9.35461 19.4532 9.48462 19.6352L6.87988 20.7339C4.97791 19.7891 3.38623 18.2651 2.35974 16.332L2.35974 16.332ZM1.24353 10.1139C1.39026 10.8663 1.6178 11.67 1.92664 12.5201C2.26733 13.4583 2.69897 14.4352 3.21326 15.4377L1.70654 14.825C1.17273 13.2688 1.03467 11.6595 1.24353 10.1139L1.24353 10.1139ZM2.38416 6.79877C2.46313 6.5307 2.56604 6.28516 2.69336 6.05945L2.69214 6.05829C3.78003 4.28955 5.40796 2.83148 7.46277 1.96454C7.75098 1.84326 8.04297 1.73578 8.33716 1.64111C8.2616 1.75452 8.1897 1.8736 8.12195 1.99823C7.81165 2.56982 7.58398 3.26837 7.43884 4.08551C7.0719 4.27942 6.74438 4.50665 6.45764 4.76831C5.47241 5.66711 4.97302 6.94171 4.97302 8.55701C4.97302 9.79535 5.26917 11.238 5.85315 12.8462C6.33032 14.1594 6.98438 15.55 7.79736 16.9792C7.87793 17.1204 7.95947 17.2615 8.04187 17.4015L4.88989 16.1198C4.67126 15.7361 4.45227 15.334 4.23743 14.9152C2.49902 11.5262 1.84094 8.64386 2.38416 6.79877L2.38416 6.79877ZM8.68311 15.754C8.65686 15.8589 8.63293 15.967 8.61047 16.0782C8.46069 15.8068 8.3114 15.5283 8.16394 15.2408C6.42578 11.8519 5.7677 8.96954 6.31091 7.12439C6.49622 6.49554 6.81287 5.98602 7.27222 5.58179C7.25647 5.87189 7.24792 6.17175 7.24792 6.48315C7.24792 9.64032 8.04895 13.3287 8.68311 15.754L8.68311 15.754ZM8.48547 4.89001C8.48694 4.88959 8.4884 4.88885 8.48962 4.88849C9.15857 4.62573 9.97339 4.47034 10.9272 4.42578C10.9343 4.42542 10.9415 4.42468 10.949 4.42432C11.1276 4.41644 11.3118 4.41235 11.5 4.41199C11.6882 4.41235 11.8721 4.41644 12.051 4.42432C12.0585 4.42468 12.0653 4.42542 12.0728 4.42578C13.0266 4.47034 13.8414 4.62573 14.5104 4.88849C14.5116 4.88885 14.5131 4.88959 14.5145 4.89001C14.756 7.01697 14.4738 9.98401 13.6715 13.5496C13.5304 14.1769 13.3818 14.7856 13.2295 15.37C12.8652 15.3179 12.4807 15.2839 12.0769 15.2678C11.8965 15.2607 11.7123 15.2565 11.5236 15.2565C11.5157 15.2565 11.5078 15.257 11.5 15.257C11.4922 15.257 11.4843 15.2565 11.4764 15.2565C11.2877 15.2565 11.1035 15.2607 10.9231 15.2678C10.5193 15.2839 10.1348 15.3179 9.77051 15.37C9.61816 14.7856 9.4696 14.1769 9.32849 13.5496C8.52588 9.98401 8.24402 7.01697 8.48547 4.89001L8.48547 4.89001ZM9.0885 2.63837C9.50513 1.81854 10.1101 1.34424 10.9272 1.19861C11.1031 1.16754 11.2893 1.15149 11.4857 1.15033C11.4902 1.15033 11.4951 1.15033 11.5 1.15033C11.5049 1.15033 11.5098 1.15033 11.5143 1.15033C11.7103 1.15149 11.8969 1.16754 12.0728 1.19861C12.8899 1.34424 13.4949 1.81854 13.9115 2.63837C14.0522 2.91498 14.1705 3.23242 14.2678 3.58582C13.6177 3.40985 12.8866 3.30542 12.0769 3.27319C11.8965 3.26611 11.7123 3.26196 11.5236 3.26196C11.5157 3.26196 11.5078 3.26239 11.5 3.26239C11.4922 3.26239 11.4843 3.26196 11.4764 3.26196C11.2877 3.26196 11.1035 3.26611 10.9231 3.27319C10.1134 3.30542 9.38196 3.40985 8.73218 3.58582C8.82947 3.23242 8.94775 2.91498 9.0885 2.63837L9.0885 2.63837ZM15.7278 5.58179C16.1871 5.98602 16.5038 6.49554 16.6891 7.12439C17.2323 8.96954 16.5742 11.8519 14.8361 15.2408C14.6886 15.5283 14.5393 15.8068 14.3895 16.0782C14.3671 15.967 14.3428 15.8589 14.3169 15.754C14.951 13.3287 15.7521 9.64032 15.7521 6.48315C15.7521 6.17175 15.7435 5.87189 15.7278 5.58179L15.7278 5.58179ZM15.5372 1.96454C17.5917 2.83148 19.22 4.28955 20.3079 6.05829L20.3063 6.05945C20.434 6.28516 20.5369 6.5307 20.6155 6.79877C21.1591 8.64386 20.5006 11.5262 18.7626 14.9152C18.5477 15.334 18.3287 15.7361 18.1101 16.1198L14.9581 17.4015C15.0405 17.2615 15.1221 17.1204 15.2026 16.9792C16.0156 15.55 16.6697 14.1594 17.1469 12.8462C17.7308 11.238 18.027 9.79535 18.027 8.55701C18.027 6.94171 17.5272 5.66711 16.5424 4.76831C16.2556 4.50665 15.9281 4.27942 15.5612 4.08551C15.4155 3.26837 15.1884 2.56982 14.8781 1.99823C14.8103 1.8736 14.7384 1.75452 14.6628 1.64111C14.957 1.73578 15.249 1.84326 15.5372 1.96454L15.5372 1.96454ZM21.252 5.39984C21.231 5.36462 21.21 5.32947 21.1879 5.29541L21.1871 5.29614C19.9791 3.40198 18.2059 1.84247 15.9843 0.905151C14.5602 0.304688 13.0614 0.000366211 11.5284 0.000366211C11.5239 0.000366211 11.5194 0.000366211 11.515 0.000366211C11.5105 0.000366211 11.5063 0 11.5018 0C11.5015 0 11.5007 0.000366211 11.5 0.000366211C11.4993 0.000366211 11.4985 0 11.4978 0C11.4937 0 11.4895 0.000366211 11.485 0.000366211C11.4806 0.000366211 11.4761 0.000366211 11.4716 0.000366211C9.9386 0.000366211 8.43982 0.304688 7.01575 0.905151C4.79407 1.84247 3.02087 3.40198 1.81287 5.29614L1.81213 5.29541C1.79004 5.32947 1.76904 5.36462 1.74805 5.39984C0.134644 7.98914 -0.431641 11.1863 0.343262 14.2706C0.463745 14.7501 0.616821 15.2274 0.803589 15.699C0.835449 15.7799 0.868042 15.8604 0.901733 15.9409C1.86523 18.225 3.50488 20.0762 5.5304 21.3029C5.95642 21.5608 6.39929 21.791 6.85632 21.9916C8.28442 22.6191 9.85327 22.9604 11.481 22.9604C11.4873 22.9604 11.4937 22.9601 11.5 22.9601C11.5063 22.9601 11.5127 22.9604 11.519 22.9604C13.1467 22.9604 14.7152 22.6191 16.1437 21.9916C16.6007 21.791 17.0436 21.5608 17.4696 21.3029C19.4951 20.0762 21.1344 18.225 22.0979 15.9409C22.132 15.8604 22.1646 15.7799 22.1964 15.699C22.3832 15.2274 22.5363 14.7501 22.6567 14.2706C23.4316 11.1863 22.8654 7.98914 21.252 5.39984L21.252 5.39984Z" fill="#FFFFFF" fill-rule="evenodd" />
</svg>